<svg xmlns="http://www.w3.org/2000/svg" width="34" height="34" viewBox="0 0 34 34">
  <g id="twitter" transform="translate(0.47)">
    <rect id="Rectangle_195" data-name="Rectangle 195" width="34" height="34" rx="6" transform="translate(-0.47)" fill="#fff"/>
    <path id="Path_56" data-name="Path 56" d="M60.359,113.9A14.494,14.494,0,0,0,82.6,101.653q0-.3-.012-.6a11.389,11.389,0,0,0,2.519-2.586,11.755,11.755,0,0,1-2.877.747H82.22l.008,0c.131-.088,1.964-1.336,2.213-2.823a17.654,17.654,0,0,1-2.468,1.029c-.238.079-.488.157-.745.229a5.085,5.085,0,0,0-8.666,4.626A15.314,15.314,0,0,1,62.123,97s-2.431,3.318,1.448,6.73a5.225,5.225,0,0,1-2.2-.655,4.833,4.833,0,0,0,4.019,5.048,4.653,4.653,0,0,1-2.243.094,5.013,5.013,0,0,0,4.674,3.552,9.767,9.767,0,0,1-7.467,2.134Z" transform="translate(-55.899 -88.946)" fill="#707070"/>
  </g>
</svg>
