<svg id="youtube" xmlns="http://www.w3.org/2000/svg" width="42" height="42" viewBox="0 0 42 42">
  <g id="Youtube_1_">
    <rect id="Rectangle_196" data-name="Rectangle 196" width="42" height="42" fill="none"/>
    <path id="Youtube-2" data-name="Youtube" d="M41.58,25.084s-.411-2.915-1.67-4.2A5.977,5.977,0,0,0,35.7,19.1c-5.877-.428-14.693-.428-14.693-.428h-.018s-8.816,0-14.693.428a5.979,5.979,0,0,0-4.209,1.791C.83,22.17.42,25.084.42,25.084A64.438,64.438,0,0,0,0,31.93v3.209a64.405,64.405,0,0,0,.42,6.846s.409,2.915,1.668,4.2c1.6,1.685,3.7,1.632,4.632,1.808,3.36.325,14.28.426,14.28.426s8.825-.013,14.7-.441a5.985,5.985,0,0,0,4.208-1.792c1.259-1.284,1.669-4.2,1.669-4.2A64.407,64.407,0,0,0,42,35.139V31.93A64.438,64.438,0,0,0,41.58,25.084ZM16.663,39.028V27.144L28.01,33.106Z" transform="translate(0 -12.542)" fill="#fff" fill-rule="evenodd"/>
  </g>
</svg>
